# xmcd
#
# Track frame offsets: 
#        150
#        11082
#        23666
#        35849
#        45851
#        56951
#        68821
#        80753
#        90562
#        100011
#        109268
#        118132
#        128054
#        138948
#        150094
#        158943
#        166591
#        176458
#        187100
#        193780
#
# Disc length: 2699 seconds
#
# Revision: 3
# Processed by: cddbd v1.5.2PL0 Copyright (c) Steve Scherf et al.
# Submitted via: ExactAudioCopy v1.0b3
#
DISCID=030a8914
DTITLE=Cash, Johnny - Folsom Prison Blues
DYEAR=2003
DGENRE=Country
TTITLE0=Cry! Cry! Cry!
TTITLE1=Folsom Prison Blues
TTITLE2=I Walk The Line
TTITLE3=Get Rhythm
TTITLE4=Don't Make Me Go
TTITLE5=Home Of The Blues
TTITLE6=Give My Love To Rose
TTITLE7=Ballad Of A Teenage Queen
TTITLE8=It's Just About Time
TTITLE9=Luther Played The Boogie
TTITLE10=Katy Too
TTITLE11=Goodbye Little Darlin'
TTITLE12=I Love You Because
TTITLE13=Mean-Eyed Cat
TTITLE14=Life Goes On
TTITLE15=Hey Good Lookin'
TTITLE16=I Could Never Be Ashamed Of You
TTITLE17=I Just Thought You'd Like To Know
TTITLE18=Leave That Junk Alone
TTITLE19=I Forgot To Remember To Forget
EXTD=
EXTT0=
EXTT1=
EXTT2=
EXTT3=
EXTT4=
EXTT5=
EXTT6=
EXTT7=
EXTT8=
EXTT9=
EXTT10=
EXTT11=
EXTT12=
EXTT13=
EXTT14=
EXTT15=
EXTT16=
EXTT17=
EXTT18=
EXTT19=
PLAYORDER=
